<mxfile host="app.diagrams.net" modified="2024-04-23T10:41:19.843Z" agent="Mozilla/5.0 (Windows NT 10.0; Win64; x64; rv:123.0) Gecko/20100101 Firefox/123.0" etag="TmryT8iJxdwq0aCTCEzP" version="24.2.8" type="github">
  <diagram name="Seite-1" id="XCDvdr9IGEvtM2wcwEG0">
    <mxGraphModel dx="1050" dy="531" grid="1" gridSize="10" guides="1" tooltips="1" connect="1" arrows="1" fold="1" page="1" pageScale="1" pageWidth="827" pageHeight="1169" math="0" shadow="0">
      <root>
        <mxCell id="0" />
        <mxCell id="1" parent="0" />
        <mxCell id="M9WG2AQ9_H8CCXht_fFl-16" value="" style="edgeStyle=orthogonalEdgeStyle;rounded=0;orthogonalLoop=1;jettySize=auto;html=1;exitX=-0.024;exitY=0.58;exitDx=0;exitDy=0;exitPerimeter=0;" parent="1" source="M9WG2AQ9_H8CCXht_fFl-15" target="M9WG2AQ9_H8CCXht_fFl-2" edge="1">
          <mxGeometry relative="1" as="geometry">
            <Array as="points">
              <mxPoint x="640" y="63" />
            </Array>
          </mxGeometry>
        </mxCell>
        <mxCell id="M9WG2AQ9_H8CCXht_fFl-15" value="" style="ellipse;whiteSpace=wrap;html=1;aspect=fixed;" parent="1" vertex="1">
          <mxGeometry x="720" y="40" width="40" height="40" as="geometry" />
        </mxCell>
        <mxCell id="M9WG2AQ9_H8CCXht_fFl-2" value="" style="rounded=0;whiteSpace=wrap;html=1;" parent="1" vertex="1">
          <mxGeometry x="550" y="120" width="180" height="140" as="geometry" />
        </mxCell>
        <mxCell id="M9WG2AQ9_H8CCXht_fFl-3" value="" style="rounded=0;whiteSpace=wrap;html=1;" parent="1" vertex="1">
          <mxGeometry x="330" y="110" width="120" height="60" as="geometry" />
        </mxCell>
        <mxCell id="M9WG2AQ9_H8CCXht_fFl-4" value="" style="rounded=0;whiteSpace=wrap;html=1;" parent="1" vertex="1">
          <mxGeometry x="330" y="270" width="120" height="60" as="geometry" />
        </mxCell>
        <mxCell id="M9WG2AQ9_H8CCXht_fFl-5" value="" style="rounded=0;whiteSpace=wrap;html=1;" parent="1" vertex="1">
          <mxGeometry x="330" y="420" width="120" height="60" as="geometry" />
        </mxCell>
        <mxCell id="M9WG2AQ9_H8CCXht_fFl-6" value="" style="ellipse;whiteSpace=wrap;html=1;aspect=fixed;" parent="1" vertex="1">
          <mxGeometry x="350" y="60" width="40" height="40" as="geometry" />
        </mxCell>
        <mxCell id="M9WG2AQ9_H8CCXht_fFl-7" value="" style="ellipse;whiteSpace=wrap;html=1;aspect=fixed;" parent="1" vertex="1">
          <mxGeometry x="350" y="220" width="40" height="40" as="geometry" />
        </mxCell>
        <mxCell id="M9WG2AQ9_H8CCXht_fFl-8" value="" style="ellipse;whiteSpace=wrap;html=1;aspect=fixed;" parent="1" vertex="1">
          <mxGeometry x="350" y="370" width="40" height="40" as="geometry" />
        </mxCell>
        <mxCell id="M9WG2AQ9_H8CCXht_fFl-9" value="" style="ellipse;whiteSpace=wrap;html=1;aspect=fixed;" parent="1" vertex="1">
          <mxGeometry x="355" y="65" width="30" height="30" as="geometry" />
        </mxCell>
        <mxCell id="M9WG2AQ9_H8CCXht_fFl-10" value="" style="ellipse;whiteSpace=wrap;html=1;aspect=fixed;" parent="1" vertex="1">
          <mxGeometry x="355" y="225" width="30" height="30" as="geometry" />
        </mxCell>
        <mxCell id="M9WG2AQ9_H8CCXht_fFl-11" value="" style="ellipse;whiteSpace=wrap;html=1;aspect=fixed;" parent="1" vertex="1">
          <mxGeometry x="355" y="375" width="30" height="30" as="geometry" />
        </mxCell>
        <mxCell id="M9WG2AQ9_H8CCXht_fFl-12" value="" style="ellipse;whiteSpace=wrap;html=1;aspect=fixed;" parent="1" vertex="1">
          <mxGeometry x="725" y="45" width="30" height="30" as="geometry" />
        </mxCell>
        <mxCell id="M9WG2AQ9_H8CCXht_fFl-17" style="edgeStyle=orthogonalEdgeStyle;rounded=0;orthogonalLoop=1;jettySize=auto;html=1;entryX=0.702;entryY=-0.058;entryDx=0;entryDy=0;entryPerimeter=0;" parent="1" edge="1">
          <mxGeometry relative="1" as="geometry">
            <mxPoint x="390" y="83.47999999999995" as="sourcePoint" />
            <mxPoint x="414.24" y="110.00000000000003" as="targetPoint" />
            <Array as="points">
              <mxPoint x="414" y="83.48" />
              <mxPoint x="414" y="93.48" />
            </Array>
          </mxGeometry>
        </mxCell>
        <mxCell id="M9WG2AQ9_H8CCXht_fFl-18" style="edgeStyle=orthogonalEdgeStyle;rounded=0;orthogonalLoop=1;jettySize=auto;html=1;entryX=0.702;entryY=-0.058;entryDx=0;entryDy=0;entryPerimeter=0;" parent="1" edge="1">
          <mxGeometry relative="1" as="geometry">
            <mxPoint x="390" y="243" as="sourcePoint" />
            <mxPoint x="414" y="270" as="targetPoint" />
            <Array as="points">
              <mxPoint x="414" y="243" />
              <mxPoint x="414" y="253" />
            </Array>
          </mxGeometry>
        </mxCell>
        <mxCell id="M9WG2AQ9_H8CCXht_fFl-19" style="edgeStyle=orthogonalEdgeStyle;rounded=0;orthogonalLoop=1;jettySize=auto;html=1;entryX=0.702;entryY=-0.058;entryDx=0;entryDy=0;entryPerimeter=0;" parent="1" edge="1">
          <mxGeometry relative="1" as="geometry">
            <mxPoint x="390" y="393" as="sourcePoint" />
            <mxPoint x="414" y="420" as="targetPoint" />
            <Array as="points">
              <mxPoint x="414" y="393" />
              <mxPoint x="414" y="403" />
            </Array>
          </mxGeometry>
        </mxCell>
        <mxCell id="M9WG2AQ9_H8CCXht_fFl-21" value="" style="endArrow=classic;startArrow=classic;html=1;rounded=0;entryX=-0.009;entryY=0.282;entryDx=0;entryDy=0;entryPerimeter=0;" parent="1" edge="1">
          <mxGeometry width="50" height="50" relative="1" as="geometry">
            <mxPoint x="450" y="140.18" as="sourcePoint" />
            <mxPoint x="548.3800000000001" y="139.6599999999999" as="targetPoint" />
          </mxGeometry>
        </mxCell>
        <mxCell id="M9WG2AQ9_H8CCXht_fFl-23" value="" style="endArrow=classic;startArrow=classic;html=1;rounded=0;entryX=-0.009;entryY=0.282;entryDx=0;entryDy=0;entryPerimeter=0;exitX=1;exitY=0.5;exitDx=0;exitDy=0;" parent="1" source="M9WG2AQ9_H8CCXht_fFl-4" edge="1">
          <mxGeometry width="50" height="50" relative="1" as="geometry">
            <mxPoint x="452" y="190.5" as="sourcePoint" />
            <mxPoint x="550" y="189.5" as="targetPoint" />
            <Array as="points">
              <mxPoint x="500" y="300" />
              <mxPoint x="500" y="190" />
            </Array>
          </mxGeometry>
        </mxCell>
        <mxCell id="M9WG2AQ9_H8CCXht_fFl-24" value="" style="endArrow=classic;startArrow=classic;html=1;rounded=0;exitX=1;exitY=0.5;exitDx=0;exitDy=0;" parent="1" source="M9WG2AQ9_H8CCXht_fFl-5" edge="1">
          <mxGeometry width="50" height="50" relative="1" as="geometry">
            <mxPoint x="470" y="460" as="sourcePoint" />
            <mxPoint x="550" y="220" as="targetPoint" />
            <Array as="points">
              <mxPoint x="530" y="450" />
              <mxPoint x="530" y="340" />
              <mxPoint x="530" y="220" />
            </Array>
          </mxGeometry>
        </mxCell>
        <mxCell id="M9WG2AQ9_H8CCXht_fFl-25" value="&lt;font style=&quot;font-size: 19px;&quot;&gt;Clock Distribution&lt;br&gt;&lt;/font&gt;" style="text;html=1;align=center;verticalAlign=middle;resizable=0;points=[];autosize=1;strokeColor=none;fillColor=none;" parent="1" vertex="1">
          <mxGeometry x="555" y="165" width="170" height="40" as="geometry" />
        </mxCell>
        <mxCell id="M9WG2AQ9_H8CCXht_fFl-26" value="&lt;font style=&quot;font-size: 19px;&quot;&gt;PLL1&lt;font style=&quot;font-size: 19px;&quot;&gt;&lt;br&gt;&lt;/font&gt;&lt;/font&gt;" style="text;html=1;align=center;verticalAlign=middle;resizable=0;points=[];autosize=1;strokeColor=none;fillColor=none;" parent="1" vertex="1">
          <mxGeometry x="355" y="120" width="70" height="40" as="geometry" />
        </mxCell>
        <mxCell id="M9WG2AQ9_H8CCXht_fFl-27" value="&lt;font style=&quot;font-size: 19px;&quot;&gt;PLL2&lt;font style=&quot;font-size: 19px;&quot;&gt;&lt;br&gt;&lt;/font&gt;&lt;/font&gt;" style="text;html=1;align=center;verticalAlign=middle;resizable=0;points=[];autosize=1;strokeColor=none;fillColor=none;" parent="1" vertex="1">
          <mxGeometry x="355" y="280" width="70" height="40" as="geometry" />
        </mxCell>
        <mxCell id="M9WG2AQ9_H8CCXht_fFl-28" value="&lt;font style=&quot;font-size: 19px;&quot;&gt;PLL3&lt;font style=&quot;font-size: 19px;&quot;&gt;&lt;br&gt;&lt;/font&gt;&lt;/font&gt;" style="text;html=1;align=center;verticalAlign=middle;resizable=0;points=[];autosize=1;strokeColor=none;fillColor=none;" parent="1" vertex="1">
          <mxGeometry x="355" y="430" width="70" height="40" as="geometry" />
        </mxCell>
        <mxCell id="M9WG2AQ9_H8CCXht_fFl-30" value="" style="whiteSpace=wrap;html=1;aspect=fixed;" parent="1" vertex="1">
          <mxGeometry x="40" y="520" width="80" height="80" as="geometry" />
        </mxCell>
        <mxCell id="M9WG2AQ9_H8CCXht_fFl-31" value="&lt;font style=&quot;font-size: 19px;&quot;&gt;4WI&lt;font style=&quot;font-size: 19px;&quot;&gt;&lt;br&gt;&lt;/font&gt;&lt;/font&gt;" style="text;html=1;align=center;verticalAlign=middle;resizable=0;points=[];autosize=1;strokeColor=none;fillColor=none;" parent="1" vertex="1">
          <mxGeometry x="50" y="540" width="60" height="40" as="geometry" />
        </mxCell>
        <mxCell id="M9WG2AQ9_H8CCXht_fFl-35" style="edgeStyle=orthogonalEdgeStyle;rounded=0;orthogonalLoop=1;jettySize=auto;html=1;exitX=1;exitY=0.25;exitDx=0;exitDy=0;entryX=-0.014;entryY=0.158;entryDx=0;entryDy=0;entryPerimeter=0;" parent="1" target="M9WG2AQ9_H8CCXht_fFl-3" edge="1">
          <mxGeometry relative="1" as="geometry">
            <mxPoint x="120" y="30" as="sourcePoint" />
            <mxPoint x="320" y="120" as="targetPoint" />
            <Array as="points">
              <mxPoint x="240" y="30" />
              <mxPoint x="240" y="120" />
              <mxPoint x="320" y="120" />
            </Array>
          </mxGeometry>
        </mxCell>
        <mxCell id="M9WG2AQ9_H8CCXht_fFl-37" value="Data" style="edgeLabel;html=1;align=center;verticalAlign=middle;resizable=0;points=[];" parent="M9WG2AQ9_H8CCXht_fFl-35" vertex="1" connectable="0">
          <mxGeometry x="0.0447" y="1" relative="1" as="geometry">
            <mxPoint x="-11" y="-44" as="offset" />
          </mxGeometry>
        </mxCell>
        <mxCell id="M9WG2AQ9_H8CCXht_fFl-32" value="" style="whiteSpace=wrap;html=1;aspect=fixed;" parent="1" vertex="1">
          <mxGeometry x="40" y="20" width="80" height="80" as="geometry" />
        </mxCell>
        <mxCell id="M9WG2AQ9_H8CCXht_fFl-33" value="&lt;font style=&quot;font-size: 19px;&quot;&gt;SPI&lt;font style=&quot;font-size: 19px;&quot;&gt;&lt;br&gt;&lt;/font&gt;&lt;/font&gt;" style="text;html=1;align=center;verticalAlign=middle;resizable=0;points=[];autosize=1;strokeColor=none;fillColor=none;" parent="1" vertex="1">
          <mxGeometry x="55" y="40" width="50" height="40" as="geometry" />
        </mxCell>
        <mxCell id="M9WG2AQ9_H8CCXht_fFl-39" value="" style="endArrow=none;html=1;rounded=0;" parent="1" edge="1">
          <mxGeometry width="50" height="50" relative="1" as="geometry">
            <mxPoint x="200" y="300" as="sourcePoint" />
            <mxPoint x="200" y="145" as="targetPoint" />
          </mxGeometry>
        </mxCell>
        <mxCell id="M9WG2AQ9_H8CCXht_fFl-41" value="" style="endArrow=none;html=1;rounded=0;" parent="1" edge="1">
          <mxGeometry width="50" height="50" relative="1" as="geometry">
            <mxPoint x="240" y="280" as="sourcePoint" />
            <mxPoint x="240.29" y="120" as="targetPoint" />
          </mxGeometry>
        </mxCell>
        <mxCell id="M9WG2AQ9_H8CCXht_fFl-43" style="edgeStyle=orthogonalEdgeStyle;rounded=0;orthogonalLoop=1;jettySize=auto;html=1;entryX=0;entryY=0.5;entryDx=0;entryDy=0;" parent="1" target="M9WG2AQ9_H8CCXht_fFl-3" edge="1">
          <mxGeometry relative="1" as="geometry">
            <mxPoint x="120" y="50" as="sourcePoint" />
            <mxPoint x="327.5" y="140" as="targetPoint" />
            <Array as="points">
              <mxPoint x="198" y="50" />
              <mxPoint x="198" y="140" />
            </Array>
          </mxGeometry>
        </mxCell>
        <mxCell id="M9WG2AQ9_H8CCXht_fFl-44" value="CLK" style="edgeLabel;html=1;align=center;verticalAlign=middle;resizable=0;points=[];" parent="M9WG2AQ9_H8CCXht_fFl-43" vertex="1" connectable="0">
          <mxGeometry x="0.0447" y="1" relative="1" as="geometry">
            <mxPoint x="-11" y="-89" as="offset" />
          </mxGeometry>
        </mxCell>
        <mxCell id="M9WG2AQ9_H8CCXht_fFl-45" style="edgeStyle=orthogonalEdgeStyle;rounded=0;orthogonalLoop=1;jettySize=auto;html=1;exitX=1;exitY=0.25;exitDx=0;exitDy=0;entryX=0;entryY=0.833;entryDx=0;entryDy=0;entryPerimeter=0;" parent="1" target="M9WG2AQ9_H8CCXht_fFl-3" edge="1">
          <mxGeometry relative="1" as="geometry">
            <mxPoint x="120" y="70" as="sourcePoint" />
            <mxPoint x="300" y="160" as="targetPoint" />
            <Array as="points">
              <mxPoint x="160" y="70" />
              <mxPoint x="160" y="160" />
            </Array>
          </mxGeometry>
        </mxCell>
        <mxCell id="M9WG2AQ9_H8CCXht_fFl-46" value="RDBK" style="edgeLabel;html=1;align=center;verticalAlign=middle;resizable=0;points=[];" parent="M9WG2AQ9_H8CCXht_fFl-45" vertex="1" connectable="0">
          <mxGeometry x="0.0447" y="1" relative="1" as="geometry">
            <mxPoint x="-39" y="-99" as="offset" />
          </mxGeometry>
        </mxCell>
        <mxCell id="M9WG2AQ9_H8CCXht_fFl-49" value="" style="ellipse;whiteSpace=wrap;html=1;fillColor=#000000;" parent="1" vertex="1">
          <mxGeometry x="190" y="130" width="20" height="20" as="geometry" />
        </mxCell>
        <mxCell id="M9WG2AQ9_H8CCXht_fFl-52" value="" style="ellipse;whiteSpace=wrap;html=1;fillColor=#000000;" parent="1" vertex="1">
          <mxGeometry x="231" y="110" width="20" height="20" as="geometry" />
        </mxCell>
        <mxCell id="M9WG2AQ9_H8CCXht_fFl-57" value="" style="ellipse;whiteSpace=wrap;html=1;fillColor=#000000;" parent="1" vertex="1">
          <mxGeometry x="150" y="148" width="20" height="20" as="geometry" />
        </mxCell>
        <mxCell id="M9WG2AQ9_H8CCXht_fFl-60" value="" style="endArrow=none;html=1;rounded=0;" parent="1" edge="1">
          <mxGeometry width="50" height="50" relative="1" as="geometry">
            <mxPoint x="160" y="320" as="sourcePoint" />
            <mxPoint x="159.5" y="160" as="targetPoint" />
          </mxGeometry>
        </mxCell>
        <mxCell id="M9WG2AQ9_H8CCXht_fFl-61" value="" style="endArrow=classic;html=1;rounded=0;entryX=0;entryY=0.167;entryDx=0;entryDy=0;entryPerimeter=0;" parent="1" target="M9WG2AQ9_H8CCXht_fFl-4" edge="1">
          <mxGeometry width="50" height="50" relative="1" as="geometry">
            <mxPoint x="240" y="280" as="sourcePoint" />
            <mxPoint x="301" y="230" as="targetPoint" />
          </mxGeometry>
        </mxCell>
        <mxCell id="M9WG2AQ9_H8CCXht_fFl-63" value="" style="endArrow=classic;html=1;rounded=0;entryX=0;entryY=0.167;entryDx=0;entryDy=0;entryPerimeter=0;" parent="1" edge="1">
          <mxGeometry width="50" height="50" relative="1" as="geometry">
            <mxPoint x="200" y="300" as="sourcePoint" />
            <mxPoint x="330" y="299.58" as="targetPoint" />
          </mxGeometry>
        </mxCell>
        <mxCell id="M9WG2AQ9_H8CCXht_fFl-64" value="" style="endArrow=classic;html=1;rounded=0;entryX=0;entryY=0.167;entryDx=0;entryDy=0;entryPerimeter=0;" parent="1" edge="1">
          <mxGeometry width="50" height="50" relative="1" as="geometry">
            <mxPoint x="160" y="320" as="sourcePoint" />
            <mxPoint x="330" y="320" as="targetPoint" />
          </mxGeometry>
        </mxCell>
        <mxCell id="M9WG2AQ9_H8CCXht_fFl-66" value="" style="ellipse;whiteSpace=wrap;html=1;fillColor=#000000;" parent="1" vertex="1">
          <mxGeometry x="151" y="310" width="20" height="20" as="geometry" />
        </mxCell>
        <mxCell id="M9WG2AQ9_H8CCXht_fFl-68" value="" style="ellipse;whiteSpace=wrap;html=1;fillColor=#000000;" parent="1" vertex="1">
          <mxGeometry x="190" y="289" width="20" height="20" as="geometry" />
        </mxCell>
        <mxCell id="M9WG2AQ9_H8CCXht_fFl-69" value="" style="ellipse;whiteSpace=wrap;html=1;fillColor=#000000;" parent="1" vertex="1">
          <mxGeometry x="231" y="269" width="20" height="20" as="geometry" />
        </mxCell>
      </root>
    </mxGraphModel>
  </diagram>
</mxfile>
